<svg baseProfile="full" height="200" version="1.1" width="200" xmlns="http://www.w3.org/2000/svg" xmlns:ev="http://www.w3.org/2001/xml-events" xmlns:xlink="http://www.w3.org/1999/xlink"><defs /><g id="tree_0"><g fill="none" id="edges" stroke="black"><path d="M 14.43661971830986 128.0 V 30.0 H 14.43661971830986" id="edge_0_92" /><path d="M 12.535211267605634 170.0 V 128.0 H 14.43661971830986" id="edge_0_1" /><path d="M 16.338028169014088 156.0 V 128.0 H 14.43661971830986" id="edge_0_71" /><path d="M 15.070422535211268 170.0 V 156.0 H 16.338028169014088" id="edge_0_3" /><path d="M 17.605633802816904 170.0 V 156.0 H 16.338028169014088" id="edge_0_5" /><path d="M 21.408450704225352 156.0 V 30.0 H 21.408450704225352" id="edge_0_74" /><path d="M 20.140845070422536 170.0 V 156.0 H 21.408450704225352" id="edge_0_2" /><path d="M 22.676056338028168 170.0 V 156.0 H 21.408450704225352" id="edge_0_4" /><path d="M 25.2112676056338 170.0 V 30.0 H 25.2112676056338" id="edge_0_8" /><path d="M 27.746478873239433 170.0 V 30.0 H 27.746478873239433" id="edge_0_10" /><path d="M 32.49999999999999 128.0 V 30.0 H 32.49999999999999" id="edge_0_86" /><path d="M 30.281690140845065 170.0 V 128.0 H 32.49999999999999" id="edge_0_14" /><path d="M 34.71830985915492 142.0 V 128.0 H 32.49999999999999" id="edge_0_83" /><path d="M 32.8169014084507 170.0 V 142.0 H 34.71830985915492" id="edge_0_7" /><path d="M 36.619718309859145 156.0 V 142.0 H 34.71830985915492" id="edge_0_70" /><path d="M 35.35211267605633 170.0 V 156.0 H 36.619718309859145" id="edge_0_15" /><path d="M 37.88732394366196 170.0 V 156.0 H 36.619718309859145" id="edge_0_17" /><path d="M 40.42253521126759 170.0 V 30.0 H 40.42253521126759" id="edge_0_29" /><path d="M 46.760563380281674 142.0 V 30.0 H 46.760563380281674" id="edge_0_84" /><path d="M 44.22535211267604 156.0 V 142.0 H 46.760563380281674" id="edge_0_72" /><path d="M 42.957746478873226 170.0 V 156.0 H 44.22535211267604" id="edge_0_33" /><path d="M 45.49295774647886 170.0 V 156.0 H 44.22535211267604" id="edge_0_35" /><path d="M 49.295774647887306 156.0 V 142.0 H 46.760563380281674" id="edge_0_73" /><path d="M 48.02816901408449 170.0 V 156.0 H 49.295774647887306" id="edge_0_9" /><path d="M 50.56338028169012 170.0 V 156.0 H 49.295774647887306" id="edge_0_11" /><path d="M 53.098591549295755 170.0 V 30.0 H 53.098591549295755" id="edge_0_44" /><path d="M 56.9014084507042 44.0 V 30.0 H 56.9014084507042" id="edge_0_101" /><path d="M 55.63380281690139 170.0 V 44.0 H 56.9014084507042" id="edge_0_47" /><path d="M 58.16901408450702 170.0 V 44.0 H 56.9014084507042" id="edge_0_55" /><path d="M 64.82394366197181 44.0 V 30.0 H 64.82394366197181" id="edge_0_103" /><path d="M 60.70422535211265 170.0 V 44.0 H 64.82394366197181" id="edge_0_48" /><path d="M 68.94366197183096 114.0 V 44.0 H 64.82394366197181" id="edge_0_94" /><path d="M 65.77464788732392 128.0 V 114.0 H 68.94366197183096" id="edge_0_90" /><path d="M 63.23943661971828 170.0 V 128.0 H 65.77464788732392" id="edge_0_30" /><path d="M 65.77464788732392 170.0 V 128.0 H 65.77464788732392" id="edge_0_37" /><path d="M 68.30985915492955 170.0 V 128.0 H 65.77464788732392" id="edge_0_42" /><path d="M 72.112676056338 128.0 V 114.0 H 68.94366197183096" id="edge_0_91" /><path d="M 70.84507042253519 170.0 V 128.0 H 72.112676056338" id="edge_0_13" /><path d="M 73.38028169014082 170.0 V 128.0 H 72.112676056338" id="edge_0_36" /><path d="M 75.91549295774645 170.0 V 30.0 H 75.91549295774645" id="edge_0_50" /><path d="M 79.7183098591549 44.0 V 30.0 H 79.7183098591549" id="edge_0_102" /><path d="M 78.45070422535208 170.0 V 44.0 H 79.7183098591549" id="edge_0_51" /><path d="M 80.98591549295772 170.0 V 44.0 H 79.7183098591549" id="edge_0_54" /><path d="M 83.52112676056335 170.0 V 30.0 H 86.05633802816898" id="edge_0_52" /><path d="M 86.05633802816898 170.0 V 30.0 H 86.05633802816898" id="edge_0_64" /><path d="M 88.59154929577461 170.0 V 30.0 H 86.05633802816898" id="edge_0_66" /><path d="M 91.12676056338024 170.0 V 30.0 H 91.12676056338024" id="edge_0_53" /><path d="M 93.66197183098588 170.0 V 30.0 H 93.66197183098588" id="edge_0_56" /><path d="M 96.19718309859151 170.0 V 30.0 H 96.19718309859151" id="edge_0_57" /><path d="M 99.99999999999996 142.0 V 30.0 H 99.99999999999996" id="edge_0_80" /><path d="M 98.73239436619714 170.0 V 142.0 H 99.99999999999996" id="edge_0_58" /><path d="M 101.26760563380277 170.0 V 142.0 H 99.99999999999996" id="edge_0_62" /><path d="M 103.8028169014084 170.0 V 30.0 H 103.8028169014084" id="edge_0_59" /><path d="M 106.33802816901404 170.0 V 30.0 H 106.33802816901404" id="edge_0_60" /><path d="M 108.87323943661967 170.0 V 30.0 H 119.25176056338023" id="edge_0_61" /><path d="M 129.6302816901408 58.0 V 30.0 H 119.25176056338023" id="edge_0_100" /><path d="M 116.16197183098586 100.0 V 58.0 H 129.6302816901408" id="edge_0_95" /><path d="M 112.67605633802812 142.0 V 100.0 H 116.16197183098586" id="edge_0_82" /><path d="M 111.4084507042253 170.0 V 142.0 H 112.67605633802812" id="edge_0_0" /><path d="M 113.94366197183093 170.0 V 142.0 H 112.67605633802812" id="edge_0_28" /><path d="M 119.6478873239436 128.0 V 100.0 H 116.16197183098586" id="edge_0_89" /><path d="M 116.47887323943657 170.0 V 128.0 H 119.6478873239436" id="edge_0_16" /><path d="M 119.0140845070422 170.0 V 128.0 H 119.6478873239436" id="edge_0_38" /><path d="M 122.81690140845065 156.0 V 128.0 H 119.6478873239436" id="edge_0_75" /><path d="M 121.54929577464783 170.0 V 156.0 H 122.81690140845065" id="edge_0_32" /><path d="M 124.08450704225346 170.0 V 156.0 H 122.81690140845065" id="edge_0_34" /><path d="M 130.26408450704218 86.0 V 58.0 H 129.6302816901408" id="edge_0_98" /><path d="M 126.6197183098591 170.0 V 86.0 H 130.26408450704218" id="edge_0_31" /><path d="M 129.15492957746474 170.0 V 86.0 H 130.26408450704218" id="edge_0_39" /><path d="M 133.9084507042253 100.0 V 86.0 H 130.26408450704218" id="edge_0_96" /><path d="M 131.69014084507037 170.0 V 100.0 H 133.9084507042253" id="edge_0_6" /><path d="M 136.12676056338023 128.0 V 100.0 H 133.9084507042253" id="edge_0_88" /><path d="M 134.225352112676 170.0 V 128.0 H 136.12676056338023" id="edge_0_40" /><path d="M 138.02816901408445 156.0 V 128.0 H 136.12676056338023" id="edge_0_79" /><path d="M 136.76056338028164 170.0 V 156.0 H 138.02816901408445" id="edge_0_22" /><path d="M 139.29577464788727 170.0 V 156.0 H 138.02816901408445" id="edge_0_24" /><path d="M 143.09859154929572 72.0 V 58.0 H 129.6302816901408" id="edge_0_99" /><path d="M 141.8309859154929 170.0 V 72.0 H 143.09859154929572" id="edge_0_45" /><path d="M 144.36619718309854 170.0 V 72.0 H 143.09859154929572" id="edge_0_49" /><path d="M 146.90140845070417 170.0 V 30.0 H 146.90140845070417" id="edge_0_63" /><path d="M 149.4366197183098 170.0 V 30.0 H 150.70422535211262" id="edge_0_65" /><path d="M 151.97183098591543 170.0 V 30.0 H 150.70422535211262" id="edge_0_67" /><path d="M 154.50704225352106 170.0 V 30.0 H 154.50704225352106" id="edge_0_68" /><path d="M 157.0422535211267 170.0 V 30.0 H 160.68661971830977" id="edge_0_69" /><path d="M 164.33098591549287 86.0 V 30.0 H 160.68661971830977" id="edge_0_97" /><path d="M 159.57746478873233 170.0 V 86.0 H 164.33098591549287" id="edge_0_46" /><path d="M 169.08450704225345 114.0 V 86.0 H 164.33098591549287" id="edge_0_93" /><path d="M 164.01408450704218 128.0 V 114.0 H 169.08450704225345" id="edge_0_85" /><path d="M 162.11267605633796 170.0 V 128.0 H 164.01408450704218" id="edge_0_41" /><path d="M 165.9154929577464 156.0 V 128.0 H 164.01408450704218" id="edge_0_77" /><path d="M 164.6478873239436 170.0 V 156.0 H 165.9154929577464" id="edge_0_23" /><path d="M 167.18309859154922 170.0 V 156.0 H 165.9154929577464" id="edge_0_25" /><path d="M 174.1549295774647 128.0 V 114.0 H 169.08450704225345" id="edge_0_87" /><path d="M 169.71830985915486 170.0 V 128.0 H 174.1549295774647" id="edge_0_43" /><path d="M 178.59154929577457 142.0 V 128.0 H 174.1549295774647" id="edge_0_81" /><path d="M 172.2535211267605 170.0 V 142.0 H 178.59154929577457" id="edge_0_12" /><path d="M 177.32394366197175 156.0 V 142.0 H 178.59154929577457" id="edge_0_76" /><path d="M 174.78873239436612 170.0 V 156.0 H 177.32394366197175" id="edge_0_19" /><path d="M 177.32394366197175 170.0 V 156.0 H 177.32394366197175" id="edge_0_21" /><path d="M 179.8591549295774 170.0 V 156.0 H 177.32394366197175" id="edge_0_27" /><path d="M 184.92957746478865 156.0 V 142.0 H 178.59154929577457" id="edge_0_78" /><path d="M 182.39436619718302 170.0 V 156.0 H 184.92957746478865" id="edge_0_18" /><path d="M 184.92957746478865 170.0 V 156.0 H 184.92957746478865" id="edge_0_20" /><path d="M 187.46478873239428 170.0 V 156.0 H 184.92957746478865" id="edge_0_26" /></g><g id="symbols"><g class="nodes"><circle cx="14.43661971830986" cy="30.0" id="node_0_122" r="3" /><circle cx="14.43661971830986" cy="128.0" id="node_0_92" r="3" /><circle cx="12.535211267605634" cy="170.0" id="node_0_1" r="3" /><circle cx="16.338028169014088" cy="156.0" id="node_0_71" r="3" /><circle cx="15.070422535211268" cy="170.0" id="node_0_3" r="3" /><circle cx="17.605633802816904" cy="170.0" id="node_0_5" r="3" /><circle cx="21.408450704225352" cy="30.0" id="node_0_124" r="3" /><circle cx="21.408450704225352" cy="156.0" id="node_0_74" r="3" /><circle cx="20.140845070422536" cy="170.0" id="node_0_2" r="3" /><circle cx="22.676056338028168" cy="170.0" id="node_0_4" r="3" /><circle cx="25.2112676056338" cy="30.0" id="node_0_125" r="3" /><circle cx="25.2112676056338" cy="170.0" id="node_0_8" r="3" /><circle cx="27.746478873239433" cy="30.0" id="node_0_123" r="3" /><circle cx="27.746478873239433" cy="170.0" id="node_0_10" r="3" /><circle cx="32.49999999999999" cy="30.0" id="node_0_121" r="3" /><circle cx="32.49999999999999" cy="128.0" id="node_0_86" r="3" /><circle cx="30.281690140845065" cy="170.0" id="node_0_14" r="3" /><circle cx="34.71830985915492" cy="142.0" id="node_0_83" r="3" /><circle cx="32.8169014084507" cy="170.0" id="node_0_7" r="3" /><circle cx="36.619718309859145" cy="156.0" id="node_0_70" r="3" /><circle cx="35.35211267605633" cy="170.0" id="node_0_15" r="3" /><circle cx="37.88732394366196" cy="170.0" id="node_0_17" r="3" /><circle cx="40.42253521126759" cy="30.0" id="node_0_119" r="3" /><circle cx="40.42253521126759" cy="170.0" id="node_0_29" r="3" /><circle cx="46.760563380281674" cy="30.0" id="node_0_126" r="3" /><circle cx="46.760563380281674" cy="142.0" id="node_0_84" r="3" /><circle cx="44.22535211267604" cy="156.0" id="node_0_72" r="3" /><circle cx="42.957746478873226" cy="170.0" id="node_0_33" r="3" /><circle cx="45.49295774647886" cy="170.0" id="node_0_35" r="3" /><circle cx="49.295774647887306" cy="156.0" id="node_0_73" r="3" /><circle cx="48.02816901408449" cy="170.0" id="node_0_9" r="3" /><circle cx="50.56338028169012" cy="170.0" id="node_0_11" r="3" /><circle cx="53.098591549295755" cy="30.0" id="node_0_118" r="3" /><circle cx="53.098591549295755" cy="170.0" id="node_0_44" r="3" /><circle cx="56.9014084507042" cy="30.0" id="node_0_127" r="3" /><circle cx="56.9014084507042" cy="44.0" id="node_0_101" r="3" /><circle cx="55.63380281690139" cy="170.0" id="node_0_47" r="3" /><circle cx="58.16901408450702" cy="170.0" id="node_0_55" r="3" /><circle cx="64.82394366197181" cy="30.0" id="node_0_115" r="3" /><circle cx="64.82394366197181" cy="44.0" id="node_0_103" r="3" /><circle cx="60.70422535211265" cy="170.0" id="node_0_48" r="3" /><circle cx="68.94366197183096" cy="114.0" id="node_0_94" r="3" /><circle cx="65.77464788732392" cy="128.0" id="node_0_90" r="3" /><circle cx="63.23943661971828" cy="170.0" id="node_0_30" r="3" /><circle cx="65.77464788732392" cy="170.0" id="node_0_37" r="3" /><circle cx="68.30985915492955" cy="170.0" id="node_0_42" r="3" /><circle cx="72.112676056338" cy="128.0" id="node_0_91" r="3" /><circle cx="70.84507042253519" cy="170.0" id="node_0_13" r="3" /><circle cx="73.38028169014082" cy="170.0" id="node_0_36" r="3" /><circle cx="75.91549295774645" cy="30.0" id="node_0_116" r="3" /><circle cx="75.91549295774645" cy="170.0" id="node_0_50" r="3" /><circle cx="79.7183098591549" cy="30.0" id="node_0_117" r="3" /><circle cx="79.7183098591549" cy="44.0" id="node_0_102" r="3" /><circle cx="78.45070422535208" cy="170.0" id="node_0_51" r="3" /><circle cx="80.98591549295772" cy="170.0" id="node_0_54" r="3" /><circle cx="86.05633802816898" cy="30.0" id="node_0_107" r="3" /><circle cx="83.52112676056335" cy="170.0" id="node_0_52" r="3" /><circle cx="86.05633802816898" cy="170.0" id="node_0_64" r="3" /><circle cx="88.59154929577461" cy="170.0" id="node_0_66" r="3" /><circle cx="91.12676056338024" cy="30.0" id="node_0_114" r="3" /><circle cx="91.12676056338024" cy="170.0" id="node_0_53" r="3" /><circle cx="93.66197183098588" cy="30.0" id="node_0_113" r="3" /><circle cx="93.66197183098588" cy="170.0" id="node_0_56" r="3" /><circle cx="96.19718309859151" cy="30.0" id="node_0_112" r="3" /><circle cx="96.19718309859151" cy="170.0" id="node_0_57" r="3" /><circle cx="99.99999999999996" cy="30.0" id="node_0_120" r="3" /><circle cx="99.99999999999996" cy="142.0" id="node_0_80" r="3" /><circle cx="98.73239436619714" cy="170.0" id="node_0_58" r="3" /><circle cx="101.26760563380277" cy="170.0" id="node_0_62" r="3" /><circle cx="103.8028169014084" cy="30.0" id="node_0_111" r="3" /><circle cx="103.8028169014084" cy="170.0" id="node_0_59" r="3" /><circle cx="106.33802816901404" cy="30.0" id="node_0_110" r="3" /><circle cx="106.33802816901404" cy="170.0" id="node_0_60" r="3" /><circle cx="119.25176056338023" cy="30.0" id="node_0_104" r="3" /><circle cx="108.87323943661967" cy="170.0" id="node_0_61" r="3" /><circle cx="129.6302816901408" cy="58.0" id="node_0_100" r="3" /><circle cx="116.16197183098586" cy="100.0" id="node_0_95" r="3" /><circle cx="112.67605633802812" cy="142.0" id="node_0_82" r="3" /><circle cx="111.4084507042253" cy="170.0" id="node_0_0" r="3" /><circle cx="113.94366197183093" cy="170.0" id="node_0_28" r="3" /><circle cx="119.6478873239436" cy="128.0" id="node_0_89" r="3" /><circle cx="116.47887323943657" cy="170.0" id="node_0_16" r="3" /><circle cx="119.0140845070422" cy="170.0" id="node_0_38" r="3" /><circle cx="122.81690140845065" cy="156.0" id="node_0_75" r="3" /><circle cx="121.54929577464783" cy="170.0" id="node_0_32" r="3" /><circle cx="124.08450704225346" cy="170.0" id="node_0_34" r="3" /><circle cx="130.26408450704218" cy="86.0" id="node_0_98" r="3" /><circle cx="126.6197183098591" cy="170.0" id="node_0_31" r="3" /><circle cx="129.15492957746474" cy="170.0" id="node_0_39" r="3" /><circle cx="133.9084507042253" cy="100.0" id="node_0_96" r="3" /><circle cx="131.69014084507037" cy="170.0" id="node_0_6" r="3" /><circle cx="136.12676056338023" cy="128.0" id="node_0_88" r="3" /><circle cx="134.225352112676" cy="170.0" id="node_0_40" r="3" /><circle cx="138.02816901408445" cy="156.0" id="node_0_79" r="3" /><circle cx="136.76056338028164" cy="170.0" id="node_0_22" r="3" /><circle cx="139.29577464788727" cy="170.0" id="node_0_24" r="3" /><circle cx="143.09859154929572" cy="72.0" id="node_0_99" r="3" /><circle cx="141.8309859154929" cy="170.0" id="node_0_45" r="3" /><circle cx="144.36619718309854" cy="170.0" id="node_0_49" r="3" /><circle cx="146.90140845070417" cy="30.0" id="node_0_109" r="3" /><circle cx="146.90140845070417" cy="170.0" id="node_0_63" r="3" /><circle cx="150.70422535211262" cy="30.0" id="node_0_105" r="3" /><circle cx="149.4366197183098" cy="170.0" id="node_0_65" r="3" /><circle cx="151.97183098591543" cy="170.0" id="node_0_67" r="3" /><circle cx="154.50704225352106" cy="30.0" id="node_0_108" r="3" /><circle cx="154.50704225352106" cy="170.0" id="node_0_68" r="3" /><circle cx="160.68661971830977" cy="30.0" id="node_0_106" r="3" /><circle cx="157.0422535211267" cy="170.0" id="node_0_69" r="3" /><circle cx="164.33098591549287" cy="86.0" id="node_0_97" r="3" /><circle cx="159.57746478873233" cy="170.0" id="node_0_46" r="3" /><circle cx="169.08450704225345" cy="114.0" id="node_0_93" r="3" /><circle cx="164.01408450704218" cy="128.0" id="node_0_85" r="3" /><circle cx="162.11267605633796" cy="170.0" id="node_0_41" r="3" /><circle cx="165.9154929577464" cy="156.0" id="node_0_77" r="3" /><circle cx="164.6478873239436" cy="170.0" id="node_0_23" r="3" /><circle cx="167.18309859154922" cy="170.0" id="node_0_25" r="3" /><circle cx="174.1549295774647" cy="128.0" id="node_0_87" r="3" /><circle cx="169.71830985915486" cy="170.0" id="node_0_43" r="3" /><circle cx="178.59154929577457" cy="142.0" id="node_0_81" r="3" /><circle cx="172.2535211267605" cy="170.0" id="node_0_12" r="3" /><circle cx="177.32394366197175" cy="156.0" id="node_0_76" r="3" /><circle cx="174.78873239436612" cy="170.0" id="node_0_19" r="3" /><circle cx="177.32394366197175" cy="170.0" id="node_0_21" r="3" /><circle cx="179.8591549295774" cy="170.0" id="node_0_27" r="3" /><circle cx="184.92957746478865" cy="156.0" id="node_0_78" r="3" /><circle cx="182.39436619718302" cy="170.0" id="node_0_18" r="3" /><circle cx="184.92957746478865" cy="170.0" id="node_0_20" r="3" /><circle cx="187.46478873239428" cy="170.0" id="node_0_26" r="3" /></g><g class="mutations" fill="red" /></g><g font-size="14" id="labels"><g class="nodes"><g text-anchor="start"><text x="21.338028169014088" y="151.0">71</text><text x="39.71830985915492" y="137.0">83</text><text x="41.619718309859145" y="151.0">70</text><text x="54.295774647887306" y="151.0">73</text><text x="73.94366197183096" y="109.0">94</text><text x="77.112676056338" y="123.0">91</text><text x="134.6302816901408" y="53.0">100</text><text x="124.6478873239436" y="123.0">89</text><text x="127.81690140845065" y="151.0">75</text><text x="135.26408450704218" y="81.0">98</text><text x="138.9084507042253" y="95.0">96</text><text x="141.12676056338023" y="123.0">88</text><text x="143.02816901408445" y="151.0">79</text><text x="148.09859154929572" y="67.0">99</text><text x="169.33098591549287" y="81.0">97</text><text x="174.08450704225345" y="109.0">93</text><text x="170.9154929577464" y="151.0">77</text><text x="179.1549295774647" y="123.0">87</text><text x="183.59154929577457" y="137.0">81</text><text x="182.32394366197175" y="151.0">76</text><text x="189.92957746478865" y="151.0">78</text></g><g text-anchor="middle"><text x="14.43661971830986" y="25.0">122</text><text x="12.535211267605634" y="190.0">1</text><text x="15.070422535211268" y="190.0">3</text><text x="17.605633802816904" y="190.0">5</text><text x="21.408450704225352" y="25.0">124</text><text x="20.140845070422536" y="190.0">2</text><text x="22.676056338028168" y="190.0">4</text><text x="25.2112676056338" y="25.0">125</text><text x="25.2112676056338" y="190.0">8</text><text x="27.746478873239433" y="25.0">123</text><text x="27.746478873239433" y="190.0">10</text><text x="32.49999999999999" y="25.0">121</text><text x="30.281690140845065" y="190.0">14</text><text x="32.8169014084507" y="190.0">7</text><text x="35.35211267605633" y="190.0">15</text><text x="37.88732394366196" y="190.0">17</text><text x="40.42253521126759" y="25.0">119</text><text x="40.42253521126759" y="190.0">29</text><text x="46.760563380281674" y="25.0">126</text><text x="42.957746478873226" y="190.0">33</text><text x="45.49295774647886" y="190.0">35</text><text x="48.02816901408449" y="190.0">9</text><text x="50.56338028169012" y="190.0">11</text><text x="53.098591549295755" y="25.0">118</text><text x="53.098591549295755" y="190.0">44</text><text x="56.9014084507042" y="25.0">127</text><text x="55.63380281690139" y="190.0">47</text><text x="58.16901408450702" y="190.0">55</text><text x="64.82394366197181" y="25.0">115</text><text x="60.70422535211265" y="190.0">48</text><text x="63.23943661971828" y="190.0">30</text><text x="65.77464788732392" y="190.0">37</text><text x="68.30985915492955" y="190.0">42</text><text x="70.84507042253519" y="190.0">13</text><text x="73.38028169014082" y="190.0">36</text><text x="75.91549295774645" y="25.0">116</text><text x="75.91549295774645" y="190.0">50</text><text x="79.7183098591549" y="25.0">117</text><text x="78.45070422535208" y="190.0">51</text><text x="80.98591549295772" y="190.0">54</text><text x="86.05633802816898" y="25.0">107</text><text x="83.52112676056335" y="190.0">52</text><text x="86.05633802816898" y="190.0">64</text><text x="88.59154929577461" y="190.0">66</text><text x="91.12676056338024" y="25.0">114</text><text x="91.12676056338024" y="190.0">53</text><text x="93.66197183098588" y="25.0">113</text><text x="93.66197183098588" y="190.0">56</text><text x="96.19718309859151" y="25.0">112</text><text x="96.19718309859151" y="190.0">57</text><text x="99.99999999999996" y="25.0">120</text><text x="98.73239436619714" y="190.0">58</text><text x="101.26760563380277" y="190.0">62</text><text x="103.8028169014084" y="25.0">111</text><text x="103.8028169014084" y="190.0">59</text><text x="106.33802816901404" y="25.0">110</text><text x="106.33802816901404" y="190.0">60</text><text x="119.25176056338023" y="25.0">104</text><text x="108.87323943661967" y="190.0">61</text><text x="111.4084507042253" y="190.0">0</text><text x="113.94366197183093" y="190.0">28</text><text x="116.47887323943657" y="190.0">16</text><text x="119.0140845070422" y="190.0">38</text><text x="121.54929577464783" y="190.0">32</text><text x="124.08450704225346" y="190.0">34</text><text x="126.6197183098591" y="190.0">31</text><text x="129.15492957746474" y="190.0">39</text><text x="131.69014084507037" y="190.0">6</text><text x="134.225352112676" y="190.0">40</text><text x="136.76056338028164" y="190.0">22</text><text x="139.29577464788727" y="190.0">24</text><text x="141.8309859154929" y="190.0">45</text><text x="144.36619718309854" y="190.0">49</text><text x="146.90140845070417" y="25.0">109</text><text x="146.90140845070417" y="190.0">63</text><text x="150.70422535211262" y="25.0">105</text><text x="149.4366197183098" y="190.0">65</text><text x="151.97183098591543" y="190.0">67</text><text x="154.50704225352106" y="25.0">108</text><text x="154.50704225352106" y="190.0">68</text><text x="160.68661971830977" y="25.0">106</text><text x="157.0422535211267" y="190.0">69</text><text x="159.57746478873233" y="190.0">46</text><text x="162.11267605633796" y="190.0">41</text><text x="164.6478873239436" y="190.0">23</text><text x="167.18309859154922" y="190.0">25</text><text x="169.71830985915486" y="190.0">43</text><text x="172.2535211267605" y="190.0">12</text><text x="174.78873239436612" y="190.0">19</text><text x="177.32394366197175" y="190.0">21</text><text x="179.8591549295774" y="190.0">27</text><text x="182.39436619718302" y="190.0">18</text><text x="184.92957746478865" y="190.0">20</text><text x="187.46478873239428" y="190.0">26</text></g><g text-anchor="end"><text x="9.43661971830986" y="123.0">92</text><text x="16.408450704225352" y="151.0">74</text><text x="27.499999999999993" y="123.0">86</text><text x="41.760563380281674" y="137.0">84</text><text x="39.22535211267604" y="151.0">72</text><text x="51.9014084507042" y="39.0">101</text><text x="59.82394366197181" y="39.0">103</text><text x="60.77464788732392" y="123.0">90</text><text x="74.7183098591549" y="39.0">102</text><text x="94.99999999999996" y="137.0">80</text><text x="111.16197183098586" y="95.0">95</text><text x="107.67605633802812" y="137.0">82</text><text x="159.01408450704218" y="123.0">85</text></g></g><g class="mutations" font-style="italic"><g text-anchor="start" /><g text-anchor="end" /></g></g></g></svg>
